<svg xmlns="http://www.w3.org/2000/svg" width="277" height="326" fill="none">
  <path fill="#2C3E50" d="M109.927 306.466c0 10.288-8.312 18.601-18.6 18.601-10.29 0-18.602-8.347-18.602-18.601 0-10.255 8.313-18.601 18.601-18.601 10.289 0 18.601 8.312 18.601 18.601Z" />
  <path fill="#ECF0F1" d="M101.274 306.466a9.938 9.938 0 0 1-9.948 9.948c-5.485 0-9.948-4.463-9.948-9.948s4.463-9.948 9.948-9.948 9.948 4.463 9.948 9.948Z" />
  <path fill="#95A5A6" d="M85.875 272.262v38.428h9.846l18.158-38.428H85.875Z" />
  <path fill="#2C3E50" d="M231.073 306.466c0 10.288-8.312 18.601-18.601 18.601-10.288 0-18.601-8.347-18.601-18.601 0-10.255 8.313-18.601 18.601-18.601 10.289 0 18.601 8.312 18.601 18.601Z" />
  <path fill="#ECF0F1" d="M222.454 306.466a9.938 9.938 0 0 1-9.948 9.948c-5.485 0-9.948-4.463-9.948-9.948s4.463-9.948 9.948-9.948 9.948 4.463 9.948 9.948Z" />
  <path fill="#95A5A6" d="M207.021 272.262v38.428h9.846l18.158-38.428h-28.004Z" />
  <path fill="#BDC3C7" d="M239.931 277.236H74.462c-6.166 0-11.787-2.828-15.432-7.768-3.646-4.94-4.736-11.14-2.964-17.034l17.477-57.848c2.487-8.176 9.88-13.661 18.396-13.661h50.387c5.383 0 10.527 2.283 14.172 6.235 3.646 3.952 5.451 9.3 5.008 14.649l-3.781 44.391c-.239 2.623.647 5.144 2.419 7.086 1.771 1.942 4.224 2.998 6.847 2.998h26.88a4.958 4.958 0 0 1 4.974 4.974 4.958 4.958 0 0 1-4.974 4.974h-26.88c-5.382 0-10.527-2.283-14.172-6.235-3.645-3.952-5.451-9.3-5.008-14.649l3.782-44.391c.238-2.623-.648-5.144-2.419-7.086-1.772-1.942-4.225-2.998-6.848-2.998H91.939a9.239 9.239 0 0 0-8.891 6.609L65.57 255.33c-.852 2.862-.341 5.86 1.43 8.244a9.215 9.215 0 0 0 7.461 3.748h165.469a4.958 4.958 0 0 1 4.974 4.974 4.958 4.958 0 0 1-4.974 4.974v-.034Z" />
  <path fill="#BDC3C7" d="M235.025 183.514H82.265c-11.005 0-20.578-7.801-22.827-18.567l-26.64-128.13L267.832 88.43l-9.71 74.746c-1.499 11.583-11.446 20.304-23.132 20.304l.034.034ZM45.675 49.831l23.507 113.106c1.294 6.167 6.78 10.664 13.082 10.664h152.761c6.712 0 12.401-5.008 13.253-11.652l8.551-65.717-211.154-46.4Z" />
  <path fill="#BDC3C7" d="M105.328 183.514c-2.419 0-4.531-1.737-4.906-4.19L80.935 54.328a4.995 4.995 0 0 1 4.157-5.69 5.013 5.013 0 0 1 5.689 4.157l19.487 124.996a4.995 4.995 0 0 1-4.156 5.689c-.273.034-.511.068-.784.068v-.034ZM135.955 183.514a4.955 4.955 0 0 1-4.94-4.633L123.18 63.833c-.171-2.725 1.874-5.11 4.633-5.28 2.691-.17 5.11 1.873 5.281 4.633l7.835 115.048c.205 2.725-1.873 5.11-4.633 5.28h-.341ZM167.945 180.176a4.959 4.959 0 0 1-4.974-4.974V71.567a4.958 4.958 0 0 1 4.974-4.974 4.958 4.958 0 0 1 4.974 4.974v103.635a4.958 4.958 0 0 1-4.974 4.974ZM200.037 183.514h-.238c-2.76-.136-4.872-2.453-4.736-5.178l4.497-96.685a4.98 4.98 0 0 1 4.974-4.736h.239c2.759.137 4.872 2.453 4.735 5.179l-4.497 96.685a4.978 4.978 0 0 1-4.974 4.735ZM228.143 180.176h-.511c-2.725-.273-4.735-2.726-4.462-5.451l8.891-88.441c.273-2.725 2.692-4.701 5.451-4.463a4.977 4.977 0 0 1 4.463 5.451l-8.892 88.441a4.978 4.978 0 0 1-4.94 4.463Z" />
  <path fill="#BDC3C7" d="M259.009 122.907c-.204 0-.409 0-.647-.034L48.571 96.198c-2.726-.34-4.634-2.828-4.293-5.553.34-2.726 2.862-4.633 5.553-4.293l209.791 26.675c2.726.341 4.634 2.828 4.293 5.554-.307 2.521-2.453 4.36-4.94 4.36l.034-.034ZM255.5 150.025h-.204l-196.743-7.972c-2.76-.102-4.872-2.418-4.77-5.178.102-2.725 2.453-4.838 5.178-4.769l196.744 7.972c2.725.102 4.871 2.418 4.769 5.178-.102 2.691-2.316 4.769-4.974 4.769Z" />
  <path fill="#E74C3C" d="m261.598 105.669-39.144-9.641 5.587-22.656 39.145 9.641c6.268 1.534 10.084 7.87 8.551 14.105-1.533 6.268-7.87 10.084-14.105 8.551h-.034Z" />
  <path fill="#C0392B" d="M272.296 85.841c-2.998 6.712-11.243 10.153-18.295 8.381-9.232-2.317-18.294-4.906-26.914-9.028a11.254 11.254 0 0 1-1.737-1.056l-2.93 11.855 39.144 9.642c6.269 1.533 12.571-2.283 14.104-8.551 1.057-4.259-.408-8.483-3.406-11.277l.034.034ZM24.45 4.453l33.455 35.635-20.61 19.35-33.456-35.6c-5.348-5.69-5.076-14.65.614-19.999 5.689-5.348 14.649-5.076 19.997.614Z" />
  <path fill="#ECF0F1" d="M20.294 13.855c0 3.714-3.032 6.746-6.745 6.746-3.714 0-6.746-3.032-6.746-6.746 0-3.713 3.032-6.745 6.746-6.745 3.713 0 6.745 3.032 6.745 6.745ZM43.46 40.701a4.187 4.187 0 0 1-4.19 4.19 4.187 4.187 0 0 1-4.19-4.19 4.187 4.187 0 0 1 4.19-4.19 4.187 4.187 0 0 1 4.19 4.19Z" />
</svg>